<?xml version="1.0" standalone="no"?><svg xmlns="http://www.w3.org/2000/svg" viewBox="0 0 1440 320"><path fill="#280031" fill-opacity="1" d="M0,128L8,133.3C16,139,32,149,48,165.3C64,181,80,203,96,181.3C112,160,128,96,144,101.3C160,107,176,181,192,202.7C208,224,224,192,240,154.7C256,117,272,75,288,58.7C304,43,320,53,336,53.3C352,53,368,43,384,37.3C400,32,416,32,432,37.3C448,43,464,53,480,69.3C496,85,512,107,528,122.7C544,139,560,149,576,176C592,203,608,245,624,245.3C640,245,656,203,672,197.3C688,192,704,224,720,234.7C736,245,752,235,768,208C784,181,800,139,816,149.3C832,160,848,224,864,218.7C880,213,896,139,912,117.3C928,96,944,128,960,138.7C976,149,992,139,1008,154.7C1024,171,1040,213,1056,213.3C1072,213,1088,171,1104,154.7C1120,139,1136,149,1152,154.7C1168,160,1184,160,1200,160C1216,160,1232,160,1248,154.7C1264,149,1280,139,1296,149.3C1312,160,1328,192,1344,197.3C1360,203,1376,181,1392,154.7C1408,128,1424,96,1432,80L1440,64L1440,0L1432,0C1424,0,1408,0,1392,0C1376,0,1360,0,1344,0C1328,0,1312,0,1296,0C1280,0,1264,0,1248,0C1232,0,1216,0,1200,0C1184,0,1168,0,1152,0C1136,0,1120,0,1104,0C1088,0,1072,0,1056,0C1040,0,1024,0,1008,0C992,0,976,0,960,0C944,0,928,0,912,0C896,0,880,0,864,0C848,0,832,0,816,0C800,0,784,0,768,0C752,0,736,0,720,0C704,0,688,0,672,0C656,0,640,0,624,0C608,0,592,0,576,0C560,0,544,0,528,0C512,0,496,0,480,0C464,0,448,0,432,0C416,0,400,0,384,0C368,0,352,0,336,0C320,0,304,0,288,0C272,0,256,0,240,0C224,0,208,0,192,0C176,0,160,0,144,0C128,0,112,0,96,0C80,0,64,0,48,0C32,0,16,0,8,0L0,0Z"></path></svg>